# MagicaVoxel @ Ephtracy

# group
o 

# material
mtllib pie_unit02-1.mtl
usemtl palette

# normals
vn -1 0 0
vn 1 0 0
vn 0 0 1
vn 0 0 -1
vn 0 -1 0
vn 0 1 0

# texcoords
vt 0.939453 0.5
vt 0.943359 0.5
vt 0.966797 0.5

# verts
v -0.3 -0.1 0.1
v -0.3 -0.1 0
v -0.3 -0.1 -0.1
v -0.3 0.1 0.1
v -0.3 0.1 0
v -0.3 0.1 -0.1
v -0.2 -0.2 0.2
v -0.2 -0.2 0.1
v -0.2 -0.2 0
v -0.2 -0.2 -0.1
v -0.2 -0.1 0.1
v -0.2 -0.1 0
v -0.2 -0.1 -0.1
v -0.2 0.1 0.1
v -0.2 0.1 0
v -0.2 0.1 -0.1
v -0.2 0.2 0.2
v -0.2 0.2 0.1
v -0.2 0.2 0
v -0.2 0.2 -0.1
v -0.1 -0.3 0.1
v -0.1 -0.3 0
v -0.1 -0.3 -0.1
v -0.1 -0.2 0.1
v -0.1 -0.2 0
v -0.1 -0.2 -0.1
v -0.1 0.2 0.1
v -0.1 0.2 0
v -0.1 0.2 -0.1
v -0.1 0.3 0.1
v -0.1 0.3 0
v -0.1 0.3 -0.1
v 0.1 -0.2 0
v 0.1 -0.2 -0.1
v 0.1 -0.1 0
v 0.1 -0.1 -0.1
v 0.1 0.1 0
v 0.1 0.1 -0.1
v 0.1 0.2 0
v 0.1 0.2 -0.1
v 0.2 -0.1 0
v 0.2 -0.1 -0.1
v 0.2 0.1 0
v 0.2 0.1 -0.1
v -0.2 -0.1 0
v -0.2 -0.1 -0.1
v -0.2 0.1 0
v -0.2 0.1 -0.1
v -0.1 -0.2 0
v -0.1 -0.2 -0.1
v -0.1 -0.1 0
v -0.1 -0.1 -0.1
v -0.1 0.1 0
v -0.1 0.1 -0.1
v -0.1 0.2 0
v -0.1 0.2 -0.1
v 0.1 -0.3 0.1
v 0.1 -0.3 0
v 0.1 -0.3 -0.1
v 0.1 -0.2 0.1
v 0.1 -0.2 0
v 0.1 -0.2 -0.1
v 0.1 0.2 0.1
v 0.1 0.2 0
v 0.1 0.2 -0.1
v 0.1 0.3 0.1
v 0.1 0.3 0
v 0.1 0.3 -0.1
v 0.2 -0.2 0.2
v 0.2 -0.2 0.1
v 0.2 -0.2 0
v 0.2 -0.2 -0.1
v 0.2 -0.1 0.1
v 0.2 -0.1 0
v 0.2 -0.1 -0.1
v 0.2 0.1 0.1
v 0.2 0.1 0
v 0.2 0.1 -0.1
v 0.2 0.2 0.2
v 0.2 0.2 0.1
v 0.2 0.2 0
v 0.2 0.2 -0.1
v 0.3 -0.1 0.1
v 0.3 -0.1 0
v 0.3 -0.1 -0.1
v 0.3 0.1 0.1
v 0.3 0.1 0
v 0.3 0.1 -0.1
v -0.2 -0.2 0.2
v -0.2 0.2 0.2
v 0.2 -0.2 0.2
v 0.2 0.2 0.2
v -0.3 -0.1 0.1
v -0.3 0.1 0.1
v -0.2 -0.1 0.1
v -0.2 0.1 0.1
v -0.1 -0.3 0.1
v -0.1 -0.2 0.1
v -0.1 0.2 0.1
v -0.1 0.3 0.1
v 0.1 -0.3 0.1
v 0.1 -0.2 0.1
v 0.1 0.2 0.1
v 0.1 0.3 0.1
v 0.2 -0.1 0.1
v 0.2 0.1 0.1
v 0.3 -0.1 0.1
v 0.3 0.1 0.1
v -0.2 -0.1 0
v -0.2 0.1 0
v -0.1 -0.2 0
v -0.1 -0.1 0
v -0.1 0.1 0
v -0.1 0.2 0
v 0.1 -0.2 0
v 0.1 -0.1 0
v 0.1 0.1 0
v 0.1 0.2 0
v 0.2 -0.1 0
v 0.2 0.1 0
v -0.3 -0.1 -0.1
v -0.3 0.1 -0.1
v -0.2 -0.2 -0.1
v -0.2 -0.1 -0.1
v -0.2 0.1 -0.1
v -0.2 0.2 -0.1
v -0.1 -0.3 -0.1
v -0.1 -0.2 -0.1
v -0.1 -0.1 -0.1
v -0.1 0.1 -0.1
v -0.1 0.2 -0.1
v -0.1 0.3 -0.1
v 0.1 -0.3 -0.1
v 0.1 -0.2 -0.1
v 0.1 -0.1 -0.1
v 0.1 0.1 -0.1
v 0.1 0.2 -0.1
v 0.1 0.3 -0.1
v 0.2 -0.2 -0.1
v 0.2 -0.1 -0.1
v 0.2 0.1 -0.1
v 0.2 0.2 -0.1
v 0.3 -0.1 -0.1
v 0.3 0.1 -0.1
v -0.1 -0.3 0.1
v 0.1 -0.3 0.1
v -0.1 -0.3 0
v 0.1 -0.3 0
v -0.1 -0.3 -0.1
v 0.1 -0.3 -0.1
v -0.2 -0.2 0.2
v 0.2 -0.2 0.2
v -0.2 -0.2 0.1
v -0.1 -0.2 0.1
v 0.1 -0.2 0.1
v 0.2 -0.2 0.1
v -0.2 -0.2 0
v -0.1 -0.2 0
v 0.1 -0.2 0
v 0.2 -0.2 0
v -0.2 -0.2 -0.1
v -0.1 -0.2 -0.1
v 0.1 -0.2 -0.1
v 0.2 -0.2 -0.1
v -0.3 -0.1 0.1
v -0.2 -0.1 0.1
v 0.2 -0.1 0.1
v 0.3 -0.1 0.1
v -0.3 -0.1 0
v -0.2 -0.1 0
v 0.2 -0.1 0
v 0.3 -0.1 0
v -0.3 -0.1 -0.1
v -0.2 -0.1 -0.1
v 0.2 -0.1 -0.1
v 0.3 -0.1 -0.1
v -0.2 0.1 0
v -0.1 0.1 0
v 0.1 0.1 0
v 0.2 0.1 0
v -0.2 0.1 -0.1
v -0.1 0.1 -0.1
v 0.1 0.1 -0.1
v 0.2 0.1 -0.1
v -0.1 0.2 0
v 0.1 0.2 0
v -0.1 0.2 -0.1
v 0.1 0.2 -0.1
v -0.1 -0.2 0
v 0.1 -0.2 0
v -0.1 -0.2 -0.1
v 0.1 -0.2 -0.1
v -0.2 -0.1 0
v -0.1 -0.1 0
v 0.1 -0.1 0
v 0.2 -0.1 0
v -0.2 -0.1 -0.1
v -0.1 -0.1 -0.1
v 0.1 -0.1 -0.1
v 0.2 -0.1 -0.1
v -0.3 0.1 0.1
v -0.2 0.1 0.1
v 0.2 0.1 0.1
v 0.3 0.1 0.1
v -0.3 0.1 0
v -0.2 0.1 0
v 0.2 0.1 0
v 0.3 0.1 0
v -0.3 0.1 -0.1
v -0.2 0.1 -0.1
v 0.2 0.1 -0.1
v 0.3 0.1 -0.1
v -0.2 0.2 0.2
v 0.2 0.2 0.2
v -0.2 0.2 0.1
v -0.1 0.2 0.1
v 0.1 0.2 0.1
v 0.2 0.2 0.1
v -0.2 0.2 0
v -0.1 0.2 0
v 0.1 0.2 0
v 0.2 0.2 0
v -0.2 0.2 -0.1
v -0.1 0.2 -0.1
v 0.1 0.2 -0.1
v 0.2 0.2 -0.1
v -0.1 0.3 0.1
v 0.1 0.3 0.1
v -0.1 0.3 0
v 0.1 0.3 0
v -0.1 0.3 -0.1
v 0.1 0.3 -0.1

# faces
f 4/1/1 2/1/1 1/1/1
f 5/2/1 3/2/1 2/2/1
f 5/1/1 2/1/1 4/1/1
f 6/2/1 3/2/1 5/2/1
f 11/1/1 8/1/1 7/1/1
f 11/2/1 9/2/1 8/2/1
f 12/3/1 10/3/1 9/3/1
f 12/2/1 9/2/1 11/2/1
f 13/3/1 10/3/1 12/3/1
f 14/1/1 11/1/1 7/1/1
f 17/1/1 14/1/1 7/1/1
f 18/2/1 15/2/1 14/2/1
f 18/1/1 14/1/1 17/1/1
f 19/3/1 16/3/1 15/3/1
f 19/2/1 15/2/1 18/2/1
f 20/3/1 16/3/1 19/3/1
f 24/1/1 22/1/1 21/1/1
f 25/2/1 23/2/1 22/2/1
f 25/1/1 22/1/1 24/1/1
f 26/2/1 23/2/1 25/2/1
f 30/1/1 28/1/1 27/1/1
f 31/2/1 29/2/1 28/2/1
f 31/1/1 28/1/1 30/1/1
f 32/2/1 29/2/1 31/2/1
f 35/3/1 34/3/1 33/3/1
f 36/3/1 34/3/1 35/3/1
f 39/3/1 38/3/1 37/3/1
f 40/3/1 38/3/1 39/3/1
f 43/2/1 42/2/1 41/2/1
f 44/2/1 42/2/1 43/2/1
f 45/2/2 46/2/2 47/2/2
f 47/2/2 46/2/2 48/2/2
f 49/3/2 50/3/2 51/3/2
f 51/3/2 50/3/2 52/3/2
f 53/3/2 54/3/2 55/3/2
f 55/3/2 54/3/2 56/3/2
f 57/1/2 58/1/2 60/1/2
f 58/2/2 59/2/2 61/2/2
f 60/1/2 58/1/2 61/1/2
f 61/2/2 59/2/2 62/2/2
f 63/1/2 64/1/2 66/1/2
f 64/2/2 65/2/2 67/2/2
f 66/1/2 64/1/2 67/1/2
f 67/2/2 65/2/2 68/2/2
f 69/1/2 70/1/2 73/1/2
f 70/2/2 71/2/2 73/2/2
f 71/3/2 72/3/2 74/3/2
f 73/2/2 71/2/2 74/2/2
f 74/3/2 72/3/2 75/3/2
f 69/1/2 73/1/2 76/1/2
f 69/1/2 76/1/2 79/1/2
f 76/2/2 77/2/2 80/2/2
f 79/1/2 76/1/2 80/1/2
f 77/3/2 78/3/2 81/3/2
f 80/2/2 77/2/2 81/2/2
f 81/3/2 78/3/2 82/3/2
f 83/1/2 84/1/2 86/1/2
f 84/2/2 85/2/2 87/2/2
f 86/1/2 84/1/2 87/1/2
f 87/2/2 85/2/2 88/2/2
f 91/1/3 90/1/3 89/1/3
f 92/1/3 90/1/3 91/1/3
f 95/1/3 94/1/3 93/1/3
f 96/1/3 94/1/3 95/1/3
f 101/1/3 98/1/3 97/1/3
f 102/1/3 98/1/3 101/1/3
f 103/1/3 100/1/3 99/1/3
f 104/1/3 100/1/3 103/1/3
f 107/1/3 106/1/3 105/1/3
f 108/1/3 106/1/3 107/1/3
f 109/2/4 110/2/4 112/2/4
f 112/2/4 110/2/4 113/2/4
f 111/2/4 112/2/4 115/2/4
f 112/3/4 113/3/4 116/3/4
f 115/2/4 112/2/4 116/2/4
f 113/2/4 114/2/4 117/2/4
f 116/3/4 113/3/4 117/3/4
f 117/2/4 114/2/4 118/2/4
f 116/2/4 117/2/4 119/2/4
f 119/2/4 117/2/4 120/2/4
f 121/2/4 122/2/4 124/2/4
f 124/2/4 122/2/4 125/2/4
f 123/3/4 124/3/4 128/3/4
f 128/3/4 124/3/4 129/3/4
f 125/3/4 126/3/4 130/3/4
f 130/3/4 126/3/4 131/3/4
f 127/2/4 128/2/4 133/2/4
f 133/2/4 128/2/4 134/2/4
f 131/2/4 132/2/4 137/2/4
f 137/2/4 132/2/4 138/2/4
f 134/3/4 135/3/4 139/3/4
f 139/3/4 135/3/4 140/3/4
f 136/3/4 137/3/4 141/3/4
f 141/3/4 137/3/4 142/3/4
f 140/2/4 141/2/4 143/2/4
f 143/2/4 141/2/4 144/2/4
f 147/1/5 146/1/5 145/1/5
f 148/1/5 146/1/5 147/1/5
f 149/2/5 148/2/5 147/2/5
f 150/2/5 148/2/5 149/2/5
f 153/1/5 152/1/5 151/1/5
f 154/1/5 152/1/5 153/1/5
f 155/1/5 152/1/5 154/1/5
f 156/1/5 152/1/5 155/1/5
f 157/2/5 154/2/5 153/2/5
f 158/2/5 154/2/5 157/2/5
f 159/2/5 156/2/5 155/2/5
f 160/2/5 156/2/5 159/2/5
f 161/3/5 158/3/5 157/3/5
f 162/3/5 158/3/5 161/3/5
f 163/3/5 160/3/5 159/3/5
f 164/3/5 160/3/5 163/3/5
f 169/1/5 166/1/5 165/1/5
f 170/1/5 166/1/5 169/1/5
f 171/1/5 168/1/5 167/1/5
f 172/1/5 168/1/5 171/1/5
f 173/2/5 170/2/5 169/2/5
f 174/2/5 170/2/5 173/2/5
f 175/2/5 172/2/5 171/2/5
f 176/2/5 172/2/5 175/2/5
f 181/3/5 178/3/5 177/3/5
f 182/3/5 178/3/5 181/3/5
f 183/3/5 180/3/5 179/3/5
f 184/3/5 180/3/5 183/3/5
f 187/2/5 186/2/5 185/2/5
f 188/2/5 186/2/5 187/2/5
f 189/2/6 190/2/6 191/2/6
f 191/2/6 190/2/6 192/2/6
f 193/3/6 194/3/6 197/3/6
f 197/3/6 194/3/6 198/3/6
f 195/3/6 196/3/6 199/3/6
f 199/3/6 196/3/6 200/3/6
f 201/1/6 202/1/6 205/1/6
f 205/1/6 202/1/6 206/1/6
f 203/1/6 204/1/6 207/1/6
f 207/1/6 204/1/6 208/1/6
f 205/2/6 206/2/6 209/2/6
f 209/2/6 206/2/6 210/2/6
f 207/2/6 208/2/6 211/2/6
f 211/2/6 208/2/6 212/2/6
f 213/1/6 214/1/6 215/1/6
f 215/1/6 214/1/6 216/1/6
f 216/1/6 214/1/6 217/1/6
f 217/1/6 214/1/6 218/1/6
f 215/2/6 216/2/6 219/2/6
f 219/2/6 216/2/6 220/2/6
f 217/2/6 218/2/6 221/2/6
f 221/2/6 218/2/6 222/2/6
f 219/3/6 220/3/6 223/3/6
f 223/3/6 220/3/6 224/3/6
f 221/3/6 222/3/6 225/3/6
f 225/3/6 222/3/6 226/3/6
f 227/1/6 228/1/6 229/1/6
f 229/1/6 228/1/6 230/1/6
f 229/2/6 230/2/6 231/2/6
f 231/2/6 230/2/6 232/2/6
