# MagicaVoxel @ Ephtracy

# group
o 

# material
mtllib dirty_unit02-1.mtl
usemtl palette

# normals
vn -1 0 0
vn 1 0 0
vn 0 0 1
vn 0 0 -1
vn 0 -1 0
vn 0 1 0

# texcoords
vt 0.939453 0.5
vt 0.943359 0.5
vt 0.951172 0.5

# verts
v -0.2 0 0.3
v -0.2 0 0.2
v -0.2 0 0
v -0.2 0 -0.1
v -0.2 0.1 0.3
v -0.2 0.1 0.2
v -0.2 0.1 0.1
v -0.2 0.1 0
v -0.2 0.1 -0.1
v -0.2 0.2 0.2
v -0.2 0.2 0.1
v -0.2 0.2 0
v -0.1 -0.1 0.3
v -0.1 -0.1 0.1
v -0.1 -0.1 0
v -0.1 -0.1 -0.2
v -0.1 0 0.3
v -0.1 0 0.2
v -0.1 0 0.1
v -0.1 0 0
v -0.1 0 -0.1
v -0.1 0 -0.2
v -0.1 0.1 0.3
v -0.1 0.1 0.2
v -0.1 0.2 0.3
v -0.1 0.2 0.2
v 0 0.1 0
v 0 0.1 -0.1
v 0 0.2 0
v 0 0.2 -0.1
v 0.1 0 0.2
v 0.1 0 0.1
v 0.1 0 0
v 0.1 0 -0.1
v 0.1 0 -0.2
v 0.1 0.1 0.2
v 0.1 0.1 0.1
v 0.1 0.1 0
v 0.1 0.1 -0.1
v 0.1 0.1 -0.2
v -0.1 0 0.2
v -0.1 0 0.1
v -0.1 0 0
v -0.1 0 -0.1
v -0.1 0.1 0.2
v -0.1 0.1 0
v -0.1 0.1 -0.1
v 0 -0.1 0.3
v 0 -0.1 0.2
v 0 -0.1 0
v 0 -0.1 -0.2
v 0 0 0.3
v 0 0 0.2
v 0 0 0
v 0 0 -0.2
v 0.1 -0.1 0.2
v 0.1 -0.1 0
v 0.1 0 0.3
v 0.1 0 0.2
v 0.1 0 0.1
v 0.1 0 0
v 0.1 0.1 0.2
v 0.1 0.1 0
v 0.1 0.1 -0.1
v 0.1 0.2 0.3
v 0.1 0.2 0.2
v 0.1 0.2 0
v 0.1 0.2 -0.1
v 0.2 0 0.2
v 0.2 0 0.1
v 0.2 0 0
v 0.2 0 -0.1
v 0.2 0 -0.2
v 0.2 0.1 0.2
v 0.2 0.1 0.1
v 0.2 0.1 0
v 0.2 0.1 -0.1
v 0.2 0.1 -0.2
v 0.2 0.2 0.2
v 0.2 0.2 0
v -0.2 0 0.3
v -0.2 0.1 0.3
v -0.1 -0.1 0.3
v -0.1 0 0.3
v -0.1 0.1 0.3
v -0.1 0.2 0.3
v 0 -0.1 0.3
v 0 0 0.3
v 0.1 0 0.3
v 0.1 0.2 0.3
v -0.2 0.1 0.2
v -0.2 0.2 0.2
v -0.1 0.1 0.2
v -0.1 0.2 0.2
v 0 -0.1 0.2
v 0 0 0.2
v 0.1 -0.1 0.2
v 0.1 0 0.2
v 0.1 0.1 0.2
v 0.1 0.2 0.2
v 0.2 0 0.2
v 0.2 0.1 0.2
v 0.2 0.2 0.2
v -0.1 0 0.2
v -0.1 0.1 0.2
v 0 0 0.2
v 0 0.1 0.2
v 0.1 0 0.2
v 0.1 0.1 0.2
v -0.2 0.1 0
v -0.2 0.2 0
v -0.1 0.1 0
v -0.1 0.2 0
v 0 -0.1 0
v 0 0 0
v 0 0.1 0
v 0 0.2 0
v 0.1 -0.1 0
v 0.1 0 0
v 0.1 0.1 0
v 0.1 0.2 0
v 0.2 0.1 0
v 0.2 0.2 0
v -0.2 0 -0.1
v -0.2 0.1 -0.1
v -0.1 0 -0.1
v -0.1 0.1 -0.1
v 0 0.1 -0.1
v 0 0.2 -0.1
v 0.1 0.1 -0.1
v 0.1 0.2 -0.1
v -0.1 -0.1 -0.2
v -0.1 0 -0.2
v 0 -0.1 -0.2
v 0 0 -0.2
v 0.1 0 -0.2
v 0.1 0.1 -0.2
v 0.2 0 -0.2
v 0.2 0.1 -0.2
v -0.1 -0.1 0.3
v 0 -0.1 0.3
v 0 -0.1 0.2
v 0.1 -0.1 0.2
v -0.1 -0.1 0.1
v 0 -0.1 0.1
v -0.1 -0.1 0
v 0 -0.1 0
v 0.1 -0.1 0
v -0.1 -0.1 -0.2
v 0 -0.1 -0.2
v -0.2 0 0.3
v -0.1 0 0.3
v 0 0 0.3
v 0.1 0 0.3
v -0.2 0 0.2
v -0.1 0 0.2
v 0 0 0.2
v 0.1 0 0.2
v 0.2 0 0.2
v -0.1 0 0.1
v 0.1 0 0.1
v 0.2 0 0.1
v -0.2 0 0
v -0.1 0 0
v 0.1 0 0
v 0.2 0 0
v -0.2 0 -0.1
v -0.1 0 -0.1
v 0.1 0 -0.1
v 0.2 0 -0.1
v 0.1 0 -0.2
v 0.2 0 -0.2
v -0.1 0.1 0.2
v 0 0.1 0.2
v 0.1 0.1 0.2
v 0 0.1 0.1
v 0.1 0.1 0.1
v -0.1 0.1 0
v 0 0.1 0
v 0.1 0.1 0
v 0 0.1 -0.1
v 0.1 0.1 -0.1
v -0.1 0 0.2
v 0 0 0.2
v 0.1 0 0.2
v -0.1 0 0.1
v 0 0 0.1
v 0.1 0 0.1
v -0.1 0 0
v 0 0 0
v 0.1 0 0
v -0.1 0 -0.1
v -0.1 0 -0.2
v 0 0 -0.2
v -0.2 0.1 0.3
v -0.1 0.1 0.3
v -0.2 0.1 0.2
v -0.1 0.1 0.2
v -0.2 0.1 0
v -0.1 0.1 0
v 0.1 0.1 0
v 0.2 0.1 0
v -0.2 0.1 -0.1
v -0.1 0.1 -0.1
v 0.1 0.1 -0.1
v 0.2 0.1 -0.1
v 0.1 0.1 -0.2
v 0.2 0.1 -0.2
v -0.1 0.2 0.3
v 0.1 0.2 0.3
v -0.2 0.2 0.2
v -0.1 0.2 0.2
v 0 0.2 0.2
v 0.1 0.2 0.2
v 0.2 0.2 0.2
v -0.2 0.2 0.1
v -0.1 0.2 0.1
v 0 0.2 0.1
v 0.1 0.2 0.1
v -0.2 0.2 0
v -0.1 0.2 0
v 0 0.2 0
v 0.1 0.2 0
v 0.2 0.2 0
v 0 0.2 -0.1
v 0.1 0.2 -0.1

# faces
f 5/1/1 2/1/1 1/1/1
f 6/2/1 3/2/1 2/2/1
f 6/1/1 2/1/1 5/1/1
f 7/2/1 3/2/1 6/2/1
f 8/3/1 4/3/1 3/3/1
f 8/2/1 3/2/1 7/2/1
f 9/3/1 4/3/1 8/3/1
f 10/2/1 7/2/1 6/2/1
f 11/3/1 8/3/1 7/3/1
f 11/2/1 7/2/1 10/2/1
f 12/3/1 8/3/1 11/3/1
f 17/1/1 14/1/1 13/1/1
f 18/1/1 14/1/1 17/1/1
f 19/2/1 15/2/1 14/2/1
f 19/1/1 14/1/1 18/1/1
f 20/3/1 16/3/1 15/3/1
f 20/2/1 15/2/1 19/2/1
f 21/3/1 16/3/1 20/3/1
f 22/3/1 16/3/1 21/3/1
f 25/1/1 24/1/1 23/1/1
f 26/1/1 24/1/1 25/1/1
f 29/2/1 28/2/1 27/2/1
f 30/2/1 28/2/1 29/2/1
f 36/1/1 32/1/1 31/1/1
f 37/2/1 33/2/1 32/2/1
f 37/1/1 32/1/1 36/1/1
f 38/3/1 34/3/1 33/3/1
f 38/2/1 33/2/1 37/2/1
f 39/2/1 35/2/1 34/2/1
f 39/3/1 34/3/1 38/3/1
f 40/2/1 35/2/1 39/2/1
f 41/2/2 42/2/2 45/2/2
f 42/2/2 43/2/2 45/2/2
f 43/3/2 44/3/2 46/3/2
f 45/2/2 43/2/2 46/2/2
f 46/3/2 44/3/2 47/3/2
f 48/1/2 49/1/2 52/1/2
f 52/1/2 49/1/2 53/1/2
f 50/3/2 51/3/2 54/3/2
f 54/3/2 51/3/2 55/3/2
f 56/2/2 57/2/2 59/2/2
f 59/2/2 57/2/2 60/2/2
f 60/2/2 57/2/2 61/2/2
f 58/1/2 59/1/2 62/1/2
f 58/1/2 62/1/2 65/1/2
f 65/1/2 62/1/2 66/1/2
f 63/2/2 64/2/2 67/2/2
f 67/2/2 64/2/2 68/2/2
f 69/1/2 70/1/2 74/1/2
f 70/2/2 71/2/2 75/2/2
f 74/1/2 70/1/2 75/1/2
f 71/3/2 72/3/2 76/3/2
f 75/2/2 71/2/2 76/2/2
f 72/2/2 73/2/2 77/2/2
f 76/3/2 72/3/2 77/3/2
f 77/2/2 73/2/2 78/2/2
f 75/2/2 76/2/2 79/2/2
f 74/2/2 75/2/2 79/2/2
f 79/2/2 76/2/2 80/2/2
f 84/1/3 82/1/3 81/1/3
f 85/1/3 82/1/3 84/1/3
f 87/1/3 84/1/3 83/1/3
f 87/1/3 86/1/3 85/1/3
f 87/1/3 85/1/3 84/1/3
f 88/1/3 86/1/3 87/1/3
f 89/1/3 86/1/3 88/1/3
f 90/1/3 86/1/3 89/1/3
f 93/2/3 92/2/3 91/2/3
f 94/2/3 92/2/3 93/2/3
f 97/2/3 96/2/3 95/2/3
f 98/2/3 96/2/3 97/2/3
f 101/1/3 99/1/3 98/1/3
f 102/2/3 100/2/3 99/2/3
f 102/1/3 99/1/3 101/1/3
f 103/2/3 100/2/3 102/2/3
f 104/1/4 105/1/4 106/1/4
f 106/1/4 105/1/4 107/1/4
f 106/1/4 107/1/4 108/1/4
f 108/1/4 107/1/4 109/1/4
f 110/3/4 111/3/4 112/3/4
f 112/3/4 111/3/4 113/3/4
f 112/2/4 113/2/4 116/2/4
f 116/2/4 113/2/4 117/2/4
f 114/2/4 115/2/4 118/2/4
f 118/2/4 115/2/4 119/2/4
f 120/2/4 121/2/4 122/2/4
f 122/2/4 121/2/4 123/2/4
f 124/3/4 125/3/4 126/3/4
f 126/3/4 125/3/4 127/3/4
f 128/2/4 129/2/4 130/2/4
f 130/2/4 129/2/4 131/2/4
f 132/3/4 133/3/4 134/3/4
f 134/3/4 133/3/4 135/3/4
f 136/2/4 137/2/4 138/2/4
f 138/2/4 137/2/4 139/2/4
f 142/1/5 141/1/5 140/1/5
f 144/1/5 142/1/5 140/1/5
f 145/2/5 143/2/5 142/2/5
f 145/1/5 142/1/5 144/1/5
f 146/2/5 145/2/5 144/2/5
f 147/2/5 143/2/5 145/2/5
f 147/2/5 145/2/5 146/2/5
f 148/2/5 143/2/5 147/2/5
f 149/3/5 147/3/5 146/3/5
f 150/3/5 147/3/5 149/3/5
f 155/1/5 152/1/5 151/1/5
f 156/1/5 152/1/5 155/1/5
f 157/1/5 154/1/5 153/1/5
f 158/1/5 154/1/5 157/1/5
f 160/2/5 156/2/5 155/2/5
f 161/1/5 159/1/5 158/1/5
f 162/1/5 159/1/5 161/1/5
f 163/2/5 160/2/5 155/2/5
f 164/2/5 160/2/5 163/2/5
f 165/2/5 162/2/5 161/2/5
f 166/2/5 162/2/5 165/2/5
f 167/3/5 164/3/5 163/3/5
f 168/3/5 164/3/5 167/3/5
f 169/3/5 166/3/5 165/3/5
f 170/3/5 166/3/5 169/3/5
f 171/2/5 170/2/5 169/2/5
f 172/2/5 170/2/5 171/2/5
f 176/2/5 174/2/5 173/2/5
f 176/1/5 175/1/5 174/1/5
f 177/1/5 175/1/5 176/1/5
f 178/2/5 176/2/5 173/2/5
f 178/2/5 177/2/5 176/2/5
f 179/2/5 177/2/5 178/2/5
f 180/2/5 177/2/5 179/2/5
f 181/2/5 180/2/5 179/2/5
f 182/2/5 180/2/5 181/2/5
f 183/1/6 184/1/6 186/1/6
f 184/2/6 185/2/6 187/2/6
f 186/1/6 184/1/6 187/1/6
f 187/2/6 185/2/6 188/2/6
f 186/2/6 187/2/6 189/2/6
f 187/2/6 188/2/6 189/2/6
f 189/2/6 188/2/6 190/2/6
f 190/2/6 188/2/6 191/2/6
f 189/3/6 190/3/6 192/3/6
f 192/3/6 190/3/6 193/3/6
f 193/3/6 190/3/6 194/3/6
f 195/1/6 196/1/6 197/1/6
f 197/1/6 196/1/6 198/1/6
f 199/3/6 200/3/6 203/3/6
f 203/3/6 200/3/6 204/3/6
f 201/3/6 202/3/6 205/3/6
f 205/3/6 202/3/6 206/3/6
f 205/2/6 206/2/6 207/2/6
f 207/2/6 206/2/6 208/2/6
f 209/1/6 210/1/6 212/1/6
f 212/1/6 210/1/6 213/1/6
f 213/1/6 210/1/6 214/1/6
f 211/2/6 212/2/6 216/2/6
f 212/2/6 213/2/6 216/2/6
f 216/2/6 213/2/6 217/2/6
f 213/1/6 214/1/6 218/1/6
f 217/2/6 213/2/6 218/2/6
f 214/2/6 215/2/6 219/2/6
f 218/1/6 214/1/6 219/1/6
f 216/3/6 217/3/6 220/3/6
f 217/2/6 218/2/6 221/2/6
f 220/3/6 217/3/6 221/3/6
f 218/2/6 219/2/6 221/2/6
f 221/2/6 219/2/6 222/2/6
f 219/2/6 215/2/6 223/2/6
f 222/2/6 219/2/6 223/2/6
f 223/2/6 215/2/6 224/2/6
f 222/2/6 223/2/6 225/2/6
f 225/2/6 223/2/6 226/2/6
