# MagicaVoxel @ Ephtracy

# group
o unit

# material
mtllib dirty_unit03-2-unit.mtl
usemtl palette

# normals
vn -1 0 0
vn 1 0 0
vn 0 0 1
vn 0 0 -1
vn 0 -1 0
vn 0 1 0

# texcoords
vt 0.0332031 0.5
vt 0.849609 0.5
vt 0.857422 0.5
vt 0.939453 0.5

# verts
v -0.4 0 0.1
v -0.4 0 -0.3
v -0.4 0.1 0
v -0.4 0.1 -0.1
v -0.4 0.1 -0.3
v -0.4 0.2 0.1
v -0.4 0.2 0
v -0.4 0.2 -0.1
v -0.3 0 0.3
v -0.3 0 0.1
v -0.3 0.1 0.3
v -0.3 0.1 0.1
v -0.2 -0.1 0.3
v -0.2 -0.1 -0.1
v -0.2 -0.1 -0.2
v -0.2 0 0.3
v -0.2 0 -0.1
v -0.2 0 -0.2
v -0.2 0.1 0.2
v -0.2 0.1 0.1
v -0.2 0.1 0
v -0.2 0.1 -0.1
v -0.2 0.2 0.2
v -0.2 0.2 0.1
v -0.2 0.2 0
v -0.2 0.2 -0.1
v -0.2 0.2 -0.3
v -0.2 0.3 0.1
v -0.2 0.3 0
v -0.2 0.3 -0.3
v -0.1 -0.2 0.2
v -0.1 -0.2 -0.1
v -0.1 -0.1 0.2
v -0.1 -0.1 -0.1
v -0.1 0.1 0.3
v -0.1 0.1 0.2
v -0.1 0.2 0.3
v -0.1 0.2 0.2
v -0.1 0.2 0.1
v -0.1 0.3 0.2
v -0.1 0.3 0.1
v 0 0.2 -0.1
v 0 0.2 -0.3
v 0 0.3 -0.1
v 0 0.3 -0.3
v 0.1 -0.2 0.2
v 0.1 -0.2 0.1
v 0.1 -0.1 0.2
v 0.1 -0.1 0.1
v 0.2 -0.1 0.1
v 0.2 -0.1 -0.2
v 0.2 0 0.1
v 0.2 0 -0.2
v 0.2 0.1 0.3
v 0.2 0.1 0.2
v 0.2 0.1 0
v 0.2 0.1 -0.1
v 0.2 0.2 0.3
v 0.2 0.2 0.2
v 0.2 0.2 0
v 0.2 0.2 -0.1
v 0.3 0 0.2
v 0.3 0 -0.2
v 0.3 0.1 0.2
v 0.3 0.1 0.1
v 0.3 0.1 -0.1
v 0.3 0.1 -0.2
v 0.4 0 -0.2
v 0.4 0 -0.3
v 0.4 0.1 -0.2
v 0.4 0.1 -0.3
v -0.3 0 -0.1
v -0.3 0 -0.3
v -0.3 0.1 0
v -0.3 0.1 -0.1
v -0.3 0.1 -0.3
v -0.3 0.2 0
v -0.3 0.2 -0.1
v -0.2 0 0.2
v -0.2 0 -0.1
v -0.2 0.1 0.2
v -0.2 0.1 0.1
v -0.2 0.1 0
v -0.2 0.1 -0.1
v -0.1 -0.1 0.1
v -0.1 -0.1 -0.1
v -0.1 -0.1 -0.2
v -0.1 0 0.1
v -0.1 0 -0.1
v -0.1 0 -0.2
v -0.1 0.1 0
v -0.1 0.1 -0.1
v -0.1 0.2 0
v -0.1 0.2 -0.1
v -0.1 0.2 -0.3
v -0.1 0.3 -0.1
v -0.1 0.3 -0.3
v 0 -0.2 0.2
v 0 -0.2 0.1
v 0 -0.2 0
v 0 -0.2 -0.1
v 0 -0.1 0.3
v 0 -0.1 0.2
v 0 -0.1 0.1
v 0 -0.1 0
v 0 -0.1 -0.1
v 0 0 0.3
v 0 0 0.2
v 0.1 -0.2 0.1
v 0.1 -0.2 0
v 0.1 -0.1 0.1
v 0.1 -0.1 0
v 0.1 0.1 0.3
v 0.1 0.1 0.2
v 0.1 0.2 0.3
v 0.1 0.2 0.2
v 0.1 0.2 -0.2
v 0.1 0.2 -0.3
v 0.1 0.3 -0.2
v 0.1 0.3 -0.3
v 0.2 -0.2 0.2
v 0.2 -0.2 0.1
v 0.2 -0.1 0.2
v 0.2 -0.1 0.1
v 0.2 0.2 0.2
v 0.2 0.2 0.1
v 0.2 0.2 0
v 0.2 0.2 -0.1
v 0.2 0.2 -0.2
v 0.2 0.3 0.2
v 0.2 0.3 0.1
v 0.2 0.3 0
v 0.2 0.3 -0.2
v 0.3 -0.1 0.2
v 0.3 -0.1 -0.2
v 0.3 0 0.3
v 0.3 0 0.2
v 0.3 0 -0.2
v 0.3 0.1 0.2
v 0.3 0.1 0.1
v 0.3 0.1 -0.1
v 0.3 0.2 0.3
v 0.3 0.2 0.2
v 0.3 0.2 0.1
v 0.3 0.2 -0.1
v 0.4 0 0.2
v 0.4 0 0.1
v 0.4 0.1 0.2
v 0.4 0.1 0.1
v 0.4 0.2 0.2
v 0.4 0.2 0.1
v 0.5 0 0.1
v 0.5 0 -0.3
v 0.5 0.1 0.1
v 0.5 0.1 -0.3
v -0.3 0 0.3
v -0.3 0.1 0.3
v -0.2 -0.1 0.3
v -0.2 0 0.3
v -0.1 0.1 0.3
v -0.1 0.2 0.3
v 0 -0.1 0.3
v 0 0 0.3
v 0.1 0.1 0.3
v 0.1 0.2 0.3
v 0.2 0.1 0.3
v 0.2 0.2 0.3
v 0.3 0 0.3
v 0.3 0.2 0.3
v -0.2 0.1 0.2
v -0.2 0.2 0.2
v -0.1 -0.2 0.2
v -0.1 -0.1 0.2
v -0.1 0.1 0.2
v -0.1 0.2 0.2
v -0.1 0.3 0.2
v 0 -0.2 0.2
v 0 -0.1 0.2
v 0 0 0.2
v 0.1 -0.2 0.2
v 0.1 -0.1 0.2
v 0.1 0 0.2
v 0.1 0.1 0.2
v 0.1 0.2 0.2
v 0.2 -0.2 0.2
v 0.2 -0.1 0.2
v 0.2 0 0.2
v 0.2 0.1 0.2
v 0.2 0.2 0.2
v 0.2 0.3 0.2
v 0.3 -0.1 0.2
v 0.3 0 0.2
v 0.3 0.1 0.2
v 0.3 0.2 0.2
v 0.4 0 0.2
v 0.4 0.1 0.2
v 0.4 0.2 0.2
v -0.4 0 0.1
v -0.4 0.2 0.1
v -0.3 0 0.1
v -0.3 0.1 0.1
v -0.2 0.1 0.1
v -0.2 0.2 0.1
v -0.2 0.3 0.1
v -0.1 0.2 0.1
v -0.1 0.3 0.1
v 0 -0.2 0.1
v 0 -0.1 0.1
v 0.1 -0.2 0.1
v 0.1 -0.1 0.1
v 0.4 0 0.1
v 0.4 0.1 0.1
v 0.5 0 0.1
v 0.5 0.1 0.1
v -0.2 0 0.2
v -0.2 0.1 0.2
v -0.1 0 0.2
v -0.1 0.1 0.2
v 0 0 0.2
v 0.1 0 0.2
v 0.2 0 0.2
v 0.3 0 0.2
v 0.3 0.1 0.2
v -0.1 -0.1 0.1
v -0.1 0 0.1
v 0 -0.1 0.1
v 0 0 0.1
v 0.1 -0.2 0.1
v 0.1 -0.1 0.1
v 0.1 0 0.1
v 0.2 -0.2 0.1
v 0.2 -0.1 0.1
v 0.2 0 0.1
v 0.3 0.1 0.1
v 0.3 0.2 0.1
v 0.4 0.1 0.1
v 0.4 0.2 0.1
v -0.3 0.1 0
v -0.3 0.2 0
v -0.2 0.1 0
v -0.2 0.2 0
v -0.1 0.1 0
v -0.1 0.2 0
v 0 -0.2 0
v 0 -0.1 0
v 0 0.1 0
v 0 0.2 0
v 0.1 -0.2 0
v 0.1 -0.1 0
v 0.2 0.1 0
v 0.2 0.2 0
v -0.4 0.1 -0.1
v -0.4 0.2 -0.1
v -0.3 0 -0.1
v -0.3 0.1 -0.1
v -0.3 0.2 -0.1
v -0.2 0 -0.1
v -0.2 0.1 -0.1
v -0.2 0.2 -0.1
v -0.1 -0.2 -0.1
v -0.1 -0.1 -0.1
v -0.1 0.1 -0.1
v -0.1 0.2 -0.1
v -0.1 0.3 -0.1
v 0 -0.2 -0.1
v 0 -0.1 -0.1
v 0 0.2 -0.1
v 0 0.3 -0.1
v 0.2 0.1 -0.1
v 0.2 0.2 -0.1
v 0.3 0.1 -0.1
v 0.3 0.2 -0.1
v -0.2 -0.1 -0.2
v -0.2 0 -0.2
v -0.1 -0.1 -0.2
v -0.1 0 -0.2
v 0.1 0.2 -0.2
v 0.1 0.3 -0.2
v 0.2 -0.1 -0.2
v 0.2 0 -0.2
v 0.2 0.2 -0.2
v 0.2 0.3 -0.2
v 0.3 -0.1 -0.2
v 0.3 0 -0.2
v 0.3 0.1 -0.2
v 0.4 0 -0.2
v 0.4 0.1 -0.2
v -0.4 0 -0.3
v -0.4 0.1 -0.3
v -0.3 0 -0.3
v -0.3 0.1 -0.3
v -0.2 0.2 -0.3
v -0.2 0.3 -0.3
v -0.1 0.2 -0.3
v -0.1 0.3 -0.3
v 0 0.2 -0.3
v 0 0.3 -0.3
v 0.1 0.2 -0.3
v 0.1 0.3 -0.3
v 0.4 0 -0.3
v 0.4 0.1 -0.3
v 0.5 0 -0.3
v 0.5 0.1 -0.3
v -0.1 -0.2 0.2
v 0 -0.2 0.2
v 0.1 -0.2 0.2
v 0.2 -0.2 0.2
v 0 -0.2 0.1
v 0.1 -0.2 0.1
v 0.2 -0.2 0.1
v 0 -0.2 0
v 0.1 -0.2 0
v -0.1 -0.2 -0.1
v 0 -0.2 -0.1
v -0.2 -0.1 0.3
v 0 -0.1 0.3
v -0.1 -0.1 0.2
v 0 -0.1 0.2
v 0.1 -0.1 0.2
v 0.2 -0.1 0.2
v 0.3 -0.1 0.2
v 0 -0.1 0.1
v 0.1 -0.1 0.1
v 0.2 -0.1 0.1
v -0.2 -0.1 -0.1
v -0.1 -0.1 -0.1
v -0.2 -0.1 -0.2
v -0.1 -0.1 -0.2
v 0.2 -0.1 -0.2
v 0.3 -0.1 -0.2
v -0.3 0 0.3
v -0.2 0 0.3
v 0 0 0.3
v 0.3 0 0.3
v 0 0 0.2
v 0.1 0 0.2
v 0.2 0 0.2
v 0.3 0 0.2
v 0.4 0 0.2
v -0.4 0 0.1
v -0.3 0 0.1
v 0.4 0 0.1
v 0.5 0 0.1
v -0.3 0 -0.1
v -0.2 0 -0.1
v 0.3 0 -0.2
v 0.4 0 -0.2
v -0.4 0 -0.3
v -0.3 0 -0.3
v 0.4 0 -0.3
v 0.5 0 -0.3
v -0.2 0.1 0.2
v -0.1 0.1 0.2
v 0.3 0.1 0.2
v -0.2 0.1 0.1
v -0.1 0.1 0.1
v 0 0.1 0.1
v 0.2 0.1 0.1
v 0.3 0.1 0.1
v -0.2 0.1 0
v -0.1 0.1 0
v 0 0.1 0
v 0.2 0.1 0
v -0.2 0.1 -0.1
v -0.1 0.1 -0.1
v 0.2 0.1 -0.1
v 0.3 0.1 -0.1
v -0.1 0.2 0
v 0 0.2 0
v 0.2 0.2 0
v -0.2 0.2 -0.1
v -0.1 0.2 -0.1
v 0 0.2 -0.1
v 0.2 0.2 -0.1
v 0.1 0.2 -0.2
v 0.2 0.2 -0.2
v -0.2 0.2 -0.3
v -0.1 0.2 -0.3
v 0 0.2 -0.3
v 0.1 0.2 -0.3
v -0.1 -0.1 0.1
v 0 -0.1 0.1
v 0.1 -0.1 0.1
v 0 -0.1 0
v 0.1 -0.1 0
v -0.1 -0.1 -0.1
v 0 -0.1 -0.1
v -0.2 0 0.2
v -0.1 0 0.2
v 0 0 0.2
v 0.1 0 0.2
v 0.2 0 0.2
v 0.3 0 0.2
v -0.1 0 0.1
v 0 0 0.1
v 0.1 0 0.1
v 0.2 0 0.1
v -0.2 0 -0.1
v -0.1 0 -0.1
v -0.2 0 -0.2
v -0.1 0 -0.2
v 0.2 0 -0.2
v 0.3 0 -0.2
v -0.3 0.1 0.3
v -0.1 0.1 0.3
v 0.1 0.1 0.3
v 0.2 0.1 0.3
v -0.2 0.1 0.2
v -0.1 0.1 0.2
v 0.1 0.1 0.2
v 0.2 0.1 0.2
v -0.3 0.1 0.1
v -0.2 0.1 0.1
v 0.3 0.1 0.1
v 0.4 0.1 0.1
v 0.5 0.1 0.1
v -0.3 0.1 0
v -0.2 0.1 0
v -0.4 0.1 -0.1
v -0.3 0.1 -0.1
v -0.2 0.1 -0.1
v 0.3 0.1 -0.1
v 0.3 0.1 -0.2
v 0.4 0.1 -0.2
v -0.4 0.1 -0.3
v -0.3 0.1 -0.3
v 0.4 0.1 -0.3
v 0.5 0.1 -0.3
v -0.1 0.2 0.3
v 0.1 0.2 0.3
v 0.2 0.2 0.3
v 0.3 0.2 0.3
v -0.2 0.2 0.2
v -0.1 0.2 0.2
v 0.1 0.2 0.2
v 0.2 0.2 0.2
v 0.3 0.2 0.2
v 0.4 0.2 0.2
v -0.4 0.2 0.1
v -0.2 0.2 0.1
v -0.1 0.2 0.1
v 0.2 0.2 0.1
v 0.3 0.2 0.1
v 0.4 0.2 0.1
v -0.4 0.2 0
v -0.3 0.2 0
v -0.2 0.2 0
v 0.2 0.2 0
v -0.4 0.2 -0.1
v -0.3 0.2 -0.1
v 0.2 0.2 -0.1
v 0.3 0.2 -0.1
v -0.1 0.3 0.2
v 0.2 0.3 0.2
v -0.2 0.3 0.1
v -0.1 0.3 0.1
v 0.1 0.3 0.1
v 0.2 0.3 0.1
v -0.2 0.3 0
v -0.1 0.3 0
v 0.1 0.3 0
v 0.2 0.3 0
v -0.1 0.3 -0.1
v 0 0.3 -0.1
v 0.1 0.3 -0.2
v 0.2 0.3 -0.2
v -0.2 0.3 -0.3
v -0.1 0.3 -0.3
v 0 0.3 -0.3
v 0.1 0.3 -0.3

# faces
f 3/4/1 2/4/1 1/4/1
f 4/4/1 2/4/1 3/4/1
f 5/4/1 2/4/1 4/4/1
f 6/4/1 3/4/1 1/4/1
f 7/2/1 4/2/1 3/2/1
f 7/4/1 3/4/1 6/4/1
f 8/2/1 4/2/1 7/2/1
f 11/4/1 10/4/1 9/4/1
f 12/4/1 10/4/1 11/4/1
f 16/4/1 14/4/1 13/4/1
f 17/2/1 15/2/1 14/2/1
f 17/4/1 14/4/1 16/4/1
f 18/2/1 15/2/1 17/2/1
f 23/1/1 20/1/1 19/1/1
f 24/1/1 20/1/1 23/1/1
f 25/1/1 22/1/1 21/1/1
f 26/1/1 22/1/1 25/1/1
f 28/4/1 25/4/1 24/4/1
f 29/2/1 26/2/1 25/2/1
f 29/4/1 25/4/1 28/4/1
f 29/2/1 27/2/1 26/2/1
f 30/2/1 27/2/1 29/2/1
f 33/4/1 32/4/1 31/4/1
f 34/4/1 32/4/1 33/4/1
f 37/4/1 36/4/1 35/4/1
f 38/4/1 36/4/1 37/4/1
f 40/4/1 39/4/1 38/4/1
f 41/4/1 39/4/1 40/4/1
f 44/4/1 43/4/1 42/4/1
f 45/4/1 43/4/1 44/4/1
f 48/4/1 47/4/1 46/4/1
f 49/4/1 47/4/1 48/4/1
f 52/4/1 51/4/1 50/4/1
f 53/4/1 51/4/1 52/4/1
f 58/4/1 55/4/1 54/4/1
f 59/4/1 55/4/1 58/4/1
f 60/2/1 57/2/1 56/2/1
f 61/2/1 57/2/1 60/2/1
f 64/4/1 63/4/1 62/4/1
f 65/4/1 63/4/1 64/4/1
f 66/4/1 63/4/1 65/4/1
f 67/4/1 63/4/1 66/4/1
f 70/4/1 69/4/1 68/4/1
f 71/4/1 69/4/1 70/4/1
f 72/4/2 73/4/2 75/4/2
f 75/4/2 73/4/2 76/4/2
f 74/2/2 75/2/2 77/2/2
f 77/2/2 75/2/2 78/2/2
f 79/4/2 80/4/2 81/4/2
f 81/4/2 80/4/2 82/4/2
f 82/4/2 80/4/2 83/4/2
f 83/4/2 80/4/2 84/4/2
f 85/4/2 86/4/2 88/4/2
f 86/2/2 87/2/2 89/2/2
f 88/4/2 86/4/2 89/4/2
f 89/2/2 87/2/2 90/2/2
f 91/1/2 92/1/2 93/1/2
f 93/1/2 92/1/2 94/1/2
f 94/2/2 95/2/2 96/2/2
f 96/2/2 95/2/2 97/2/2
f 98/4/2 99/4/2 103/4/2
f 103/4/2 99/4/2 104/4/2
f 100/4/2 101/4/2 105/4/2
f 105/4/2 101/4/2 106/4/2
f 102/4/2 103/4/2 107/4/2
f 107/4/2 103/4/2 108/4/2
f 109/4/2 110/4/2 111/4/2
f 111/4/2 110/4/2 112/4/2
f 113/4/2 114/4/2 115/4/2
f 115/4/2 114/4/2 116/4/2
f 117/4/2 118/4/2 119/4/2
f 119/4/2 118/4/2 120/4/2
f 121/4/2 122/4/2 123/4/2
f 123/4/2 122/4/2 124/4/2
f 125/4/2 126/4/2 130/4/2
f 126/2/2 127/2/2 131/2/2
f 130/4/2 126/4/2 131/4/2
f 128/4/2 129/4/2 132/4/2
f 131/2/2 127/2/2 132/2/2
f 127/4/2 128/4/2 132/4/2
f 132/4/2 129/4/2 133/4/2
f 134/4/2 135/4/2 137/4/2
f 137/4/2 135/4/2 138/4/2
f 136/4/2 137/4/2 139/4/2
f 136/4/2 139/4/2 142/4/2
f 142/4/2 139/4/2 143/4/2
f 140/2/2 141/2/2 144/2/2
f 144/2/2 141/2/2 145/2/2
f 146/4/2 147/4/2 148/4/2
f 148/4/2 147/4/2 149/4/2
f 148/2/2 149/2/2 150/2/2
f 150/2/2 149/2/2 151/2/2
f 152/4/2 153/4/2 154/4/2
f 154/4/2 153/4/2 155/4/2
f 159/4/3 157/4/3 156/4/3
f 160/4/3 157/4/3 159/4/3
f 160/4/3 159/4/3 158/4/3
f 162/4/3 160/4/3 158/4/3
f 162/4/3 161/4/3 160/4/3
f 163/4/3 161/4/3 162/4/3
f 164/4/3 161/4/3 163/4/3
f 165/4/3 161/4/3 164/4/3
f 166/4/3 164/4/3 163/4/3
f 168/4/3 166/4/3 163/4/3
f 168/4/3 167/4/3 166/4/3
f 169/4/3 167/4/3 168/4/3
f 174/1/3 171/1/3 170/1/3
f 175/1/3 171/1/3 174/1/3
f 177/4/3 173/4/3 172/4/3
f 178/4/3 173/4/3 177/4/3
f 181/2/3 179/2/3 178/2/3
f 182/2/3 179/2/3 181/2/3
f 184/4/3 176/4/3 175/4/3
f 185/4/3 181/4/3 180/4/3
f 186/3/3 182/3/3 181/3/3
f 186/4/3 181/4/3 185/4/3
f 187/3/3 182/3/3 186/3/3
f 188/4/3 184/4/3 183/4/3
f 189/4/3 176/4/3 184/4/3
f 189/4/3 184/4/3 188/4/3
f 190/4/3 176/4/3 189/4/3
f 191/4/3 187/4/3 186/4/3
f 192/4/3 187/4/3 191/4/3
f 195/4/3 193/4/3 192/4/3
f 196/2/3 194/2/3 193/2/3
f 196/4/3 193/4/3 195/4/3
f 197/2/3 194/2/3 196/2/3
f 200/4/3 199/4/3 198/4/3
f 201/4/3 199/4/3 200/4/3
f 202/4/3 199/4/3 201/4/3
f 203/4/3 199/4/3 202/4/3
f 205/4/3 204/4/3 203/4/3
f 206/4/3 204/4/3 205/4/3
f 209/4/3 208/4/3 207/4/3
f 210/4/3 208/4/3 209/4/3
f 213/4/3 212/4/3 211/4/3
f 214/4/3 212/4/3 213/4/3
f 215/4/4 216/4/4 217/4/4
f 217/4/4 216/4/4 218/4/4
f 217/4/4 218/4/4 219/4/4
f 219/4/4 218/4/4 220/4/4
f 220/4/4 218/4/4 221/4/4
f 221/4/4 218/4/4 222/4/4
f 222/4/4 218/4/4 223/4/4
f 224/1/4 225/1/4 226/1/4
f 226/1/4 225/1/4 227/1/4
f 226/2/4 227/2/4 229/2/4
f 229/2/4 227/2/4 230/2/4
f 228/4/4 229/4/4 231/4/4
f 229/3/4 230/3/4 232/3/4
f 231/4/4 229/4/4 232/4/4
f 232/3/4 230/3/4 233/3/4
f 234/2/4 235/2/4 236/2/4
f 236/2/4 235/2/4 237/2/4
f 238/4/4 239/4/4 240/4/4
f 240/4/4 239/4/4 241/4/4
f 242/4/4 243/4/4 246/4/4
f 246/4/4 243/4/4 247/4/4
f 244/4/4 245/4/4 248/4/4
f 248/4/4 245/4/4 249/4/4
f 246/3/4 247/3/4 250/3/4
f 250/3/4 247/3/4 251/3/4
f 252/2/4 253/2/4 255/2/4
f 255/2/4 253/2/4 256/2/4
f 254/4/4 255/4/4 257/4/4
f 257/4/4 255/4/4 258/4/4
f 258/1/4 259/1/4 262/1/4
f 262/1/4 259/1/4 263/1/4
f 260/4/4 261/4/4 265/4/4
f 265/4/4 261/4/4 266/4/4
f 263/4/4 264/4/4 267/4/4
f 267/4/4 264/4/4 268/4/4
f 269/2/4 270/2/4 271/2/4
f 271/2/4 270/2/4 272/2/4
f 273/2/4 274/2/4 275/2/4
f 275/2/4 274/2/4 276/2/4
f 277/4/4 278/4/4 281/4/4
f 281/4/4 278/4/4 282/4/4
f 279/4/4 280/4/4 283/4/4
f 283/4/4 280/4/4 284/4/4
f 284/4/4 285/4/4 286/4/4
f 286/4/4 285/4/4 287/4/4
f 288/4/4 289/4/4 290/4/4
f 290/4/4 289/4/4 291/4/4
f 292/2/4 293/2/4 294/2/4
f 294/2/4 293/2/4 295/2/4
f 296/4/4 297/4/4 298/4/4
f 298/4/4 297/4/4 299/4/4
f 300/4/4 301/4/4 302/4/4
f 302/4/4 301/4/4 303/4/4
f 308/4/5 305/4/5 304/4/5
f 309/4/5 307/4/5 306/4/5
f 310/4/5 307/4/5 309/4/5
f 311/4/5 308/4/5 304/4/5
f 311/4/5 309/4/5 308/4/5
f 312/4/5 309/4/5 311/4/5
f 313/4/5 311/4/5 304/4/5
f 314/4/5 311/4/5 313/4/5
f 317/4/5 316/4/5 315/4/5
f 318/4/5 316/4/5 317/4/5
f 322/2/5 319/2/5 318/2/5
f 323/2/5 319/2/5 322/2/5
f 324/4/5 321/4/5 320/4/5
f 325/4/5 317/4/5 315/4/5
f 326/4/5 317/4/5 325/4/5
f 327/2/5 326/2/5 325/2/5
f 328/2/5 326/2/5 327/2/5
f 329/4/5 321/4/5 324/4/5
f 330/4/5 321/4/5 329/4/5
f 335/4/5 334/4/5 333/4/5
f 336/4/5 334/4/5 335/4/5
f 337/4/5 334/4/5 336/4/5
f 338/4/5 334/4/5 337/4/5
f 341/4/5 332/4/5 331/4/5
f 342/4/5 339/4/5 338/4/5
f 344/4/5 341/4/5 340/4/5
f 344/4/5 332/4/5 341/4/5
f 345/4/5 332/4/5 344/4/5
f 346/4/5 343/4/5 342/4/5
f 346/4/5 342/4/5 338/4/5
f 347/4/5 343/4/5 346/4/5
f 348/4/5 344/4/5 340/4/5
f 349/4/5 344/4/5 348/4/5
f 350/4/5 343/4/5 347/4/5
f 351/4/5 343/4/5 350/4/5
f 355/1/5 353/1/5 352/1/5
f 356/4/5 354/4/5 353/4/5
f 356/1/5 353/1/5 355/1/5
f 357/4/5 354/4/5 356/4/5
f 358/4/5 354/4/5 357/4/5
f 359/4/5 354/4/5 358/4/5
f 360/4/5 356/4/5 355/4/5
f 360/4/5 357/4/5 356/4/5
f 361/4/5 357/4/5 360/4/5
f 362/3/5 358/3/5 357/3/5
f 362/4/5 357/4/5 361/4/5
f 363/2/5 359/2/5 358/2/5
f 363/3/5 358/3/5 362/3/5
f 364/1/5 361/1/5 360/1/5
f 365/1/5 361/1/5 364/1/5
f 366/2/5 359/2/5 363/2/5
f 367/2/5 359/2/5 366/2/5
f 372/4/5 369/4/5 368/4/5
f 372/4/5 370/4/5 369/4/5
f 373/4/5 370/4/5 372/4/5
f 374/4/5 370/4/5 373/4/5
f 375/4/5 374/4/5 373/4/5
f 376/4/5 374/4/5 375/4/5
f 377/2/5 372/2/5 371/2/5
f 378/2/5 372/2/5 377/2/5
f 379/4/5 375/4/5 373/4/5
f 380/4/5 375/4/5 379/4/5
f 381/4/6 382/4/6 384/4/6
f 382/4/6 383/4/6 384/4/6
f 384/4/6 383/4/6 385/4/6
f 381/4/6 384/4/6 386/4/6
f 386/4/6 384/4/6 387/4/6
f 388/4/6 389/4/6 394/4/6
f 389/1/6 390/1/6 394/1/6
f 390/2/6 391/2/6 395/2/6
f 394/1/6 390/1/6 395/1/6
f 391/3/6 392/3/6 396/3/6
f 395/2/6 391/2/6 396/2/6
f 392/4/6 393/4/6 397/4/6
f 396/3/6 392/3/6 397/3/6
f 388/4/6 394/4/6 398/4/6
f 398/4/6 394/4/6 399/4/6
f 398/2/6 399/2/6 400/2/6
f 400/2/6 399/2/6 401/2/6
f 397/4/6 393/4/6 402/4/6
f 402/4/6 393/4/6 403/4/6
f 404/4/6 405/4/6 408/4/6
f 408/4/6 405/4/6 409/4/6
f 406/4/6 407/4/6 410/4/6
f 410/4/6 407/4/6 411/4/6
f 404/4/6 408/4/6 412/4/6
f 412/4/6 408/4/6 413/4/6
f 417/4/6 418/4/6 420/4/6
f 420/4/6 418/4/6 421/4/6
f 415/4/6 416/4/6 422/4/6
f 414/4/6 415/4/6 422/4/6
f 422/4/6 416/4/6 423/4/6
f 423/4/6 416/4/6 424/4/6
f 419/4/6 420/4/6 425/4/6
f 425/4/6 420/4/6 426/4/6
f 424/4/6 416/4/6 427/4/6
f 427/4/6 416/4/6 428/4/6
f 429/4/6 430/4/6 434/4/6
f 434/4/6 430/4/6 435/4/6
f 431/4/6 432/4/6 436/4/6
f 436/4/6 432/4/6 437/4/6
f 433/1/6 434/1/6 440/1/6
f 440/1/6 434/1/6 441/1/6
f 436/4/6 437/4/6 442/4/6
f 437/2/6 438/2/6 443/2/6
f 442/4/6 437/4/6 443/4/6
f 443/2/6 438/2/6 444/2/6
f 439/4/6 440/4/6 445/4/6
f 445/4/6 440/4/6 446/4/6
f 446/4/6 440/4/6 447/4/6
f 442/2/6 443/2/6 448/2/6
f 445/2/6 446/2/6 449/2/6
f 449/2/6 446/2/6 450/2/6
f 448/2/6 443/2/6 451/2/6
f 451/2/6 443/2/6 452/2/6
f 453/4/6 454/4/6 456/4/6
f 456/4/6 454/4/6 457/4/6
f 457/4/6 454/4/6 458/4/6
f 455/4/6 456/4/6 459/4/6
f 456/4/6 457/4/6 459/4/6
f 459/4/6 457/4/6 460/4/6
f 457/2/6 458/2/6 461/2/6
f 460/4/6 457/4/6 461/4/6
f 461/2/6 458/2/6 462/2/6
f 459/2/6 460/2/6 463/2/6
f 460/4/6 461/4/6 463/4/6
f 461/4/6 462/4/6 463/4/6
f 463/4/6 462/4/6 464/4/6
f 464/4/6 462/4/6 465/4/6
f 465/4/6 462/4/6 466/4/6
f 459/2/6 463/2/6 467/2/6
f 467/2/6 463/2/6 468/2/6
f 464/4/6 465/4/6 469/4/6
f 469/4/6 465/4/6 470/4/6
